<?xml version="1.0" encoding="utf-8" ?><svg xmlns="http://www.w3.org/2000/svg" xmlns:xlink="http://www.w3.org/1999/xlink" width="496" height="503" viewBox="0 0 496 503"><defs><linearGradient id="gradient_0" gradientUnits="userSpaceOnUse" x1="227.97789" y1="500.9476" x2="266.32379" y2="22.631464"><stop offset="0" stop-color="#020202"/><stop offset="1" stop-color="#3C3B3B"/></linearGradient></defs><path fill="url(#gradient_0)" d="M228.727 2.63525C236.666 2.04891 245.316 1.56283 253.221 1.68197C297.277 2.47512 340.306 15.1195 377.788 38.2866C386.306 43.5744 397.668 51.0677 405.048 57.8663C407.746 59.8382 410.887 62.7658 413.388 65.0463C419.708 70.7955 425.747 76.8453 431.485 83.1746C465.086 120.543 487.131 163.837 494.943 213.661C495.373 216.403 494.968 223.18 496 224.771L496 278.238C494.795 280.193 495.02 289.904 494.455 293.161C492.313 304.955 489.32 316.578 485.5 327.939C483.392 334.071 480.788 339.919 478.338 345.918C474.519 355.071 470.684 364.478 465.754 373.113C461.289 380.932 456.143 389.084 450.732 396.327C442.123 407.851 432.964 419.603 422.732 429.729C417.584 434.823 411.686 439.177 406.18 443.855C400.295 448.986 395.915 452.741 389.567 457.449C370.719 471.256 349.794 481.977 327.578 489.212C315.006 493.297 301.837 497.007 288.658 499.067C269.583 502.047 249.872 502.357 230.586 501.69C226.461 501.547 222.059 500.528 217.928 500.182C211.273 499.199 202.756 498.211 196.256 496.752C177.754 492.601 155.388 485.235 138.465 476.574C77.2716 445.239 31.0752 390.826 10.084 325.36C7.43239 317.132 5.34278 308.735 3.82963 300.224C3.23707 297.038 0.979585 280.73 0 278.679L0 224.845C0.3643 224.192 4.01474 201.341 4.4956 198.876C5.54783 193.543 6.80974 188.253 8.2784 183.019C10.8146 173.919 14.575 165.522 18.166 156.824C21.9517 147.654 25.6523 138.555 30.35 129.796C47.7868 97.2867 74.5213 68.3285 104.825 47.3784C109.255 44.3164 113.564 40.7981 118.249 38.1505C136.733 24.3884 176.596 10.8302 199.061 6.60454C205.403 4.65861 221.79 3.08114 228.727 2.63525ZM247.283 145.151C247.375 144.301 247.719 141.584 247.679 140.884C247.47 139.852 247.479 139.505 246.898 138.667C246.753 141.209 246.81 142.623 247.283 145.151ZM63.9567 252.798C62.349 252.481 60.5864 252.082 58.9705 251.96C60.1941 252.53 61.8966 253.413 63.2152 253.551L63.9567 252.798ZM116.598 155.266L116.801 154.27C115.395 152.753 112.905 150.562 111.152 149.477C112.942 151.595 114.566 153.363 116.598 155.266ZM220.355 197.466C213.555 195.592 210.507 193.492 204.674 189.728C207.944 200.533 213.181 215.233 220.649 223.953C230.015 234.89 252.221 240.59 265.905 236.506C275.273 233.711 283.218 223.951 287.568 215.645C292.807 205.601 296.728 195.773 296.8 184.334C296.854 175.803 293.81 169.859 285.847 166.023C275.878 161.222 260.327 158.303 249.126 159.602C231.854 160.883 211.674 168.255 203.603 184.754C223.383 202.643 265.245 202.491 287.839 189.681C290.832 187.984 293.897 185.407 296.903 183.513C288.862 200.704 252.261 201.874 235.828 200.34C231.067 199.896 225.069 198.531 220.355 197.466Z"/><path fill="#373737" d="M228.727 2.63525C236.666 2.04891 245.316 1.56283 253.221 1.68197C297.277 2.47512 340.306 15.1195 377.788 38.2866C386.306 43.5744 397.668 51.0677 405.048 57.8663C405.016 57.8666 404.984 57.8669 404.952 57.8672C403.76 57.0836 401.212 59.3049 400.927 59.1992C398.59 58.3341 393.786 54.4825 391.919 53.1018C381.824 45.7469 371.24 39.0891 360.239 33.1745C351.393 28.3681 353.419 28.6756 346.443 35.3765C344.705 37.0461 339.077 39.0744 336.599 39.5153C330.446 40.6102 323.627 40.1099 317.365 40.6085C310.139 41.1231 302.076 43.0935 294.949 42.5022C289.949 41.9603 285.245 39.8605 280.45 38.5359C266.824 34.7718 252.831 35.6281 238.857 35.9268C230.789 36.1227 222.717 35.9913 214.661 35.5328C203.959 34.8988 192.382 34.3623 181.827 32.7717C175.913 31.8803 170.161 29.2754 164.266 28.3778C161.455 27.9498 158.019 28.5488 155.173 28.434C154.221 28.3956 153.493 27.9851 152.889 27.2525C152.959 26.5842 153.143 26.6269 153.754 26.0137C151.649 25.5822 137.729 32.6444 135.203 34.161C133.535 35.1626 127.635 38.9578 126.101 39.0958C125.41 38.4913 125.639 38.8584 125.421 37.9363C122.684 36.1607 123.268 38.2384 121.084 37.848C120.936 37.557 120.837 37.3692 120.67 37.0834C119.64 37.7672 119.519 38.1225 118.249 38.1505C136.733 24.3884 176.596 10.8302 199.061 6.60454C205.403 4.65861 221.79 3.08114 228.727 2.63525Z"/><path fill="#121212" d="M199.061 6.60454C205.403 4.65861 221.79 3.08114 228.727 2.63525L229.335 3.18539L229.305 3.56544C227.149 4.28644 224.212 4.42682 221.922 4.82279C217.485 5.58997 212.972 6.24899 208.514 6.87464C206.478 7.16034 200.338 8.45984 199.061 6.60454Z"/><path fill="#121212" d="M327.432 125.504C341.621 112.083 364.426 110.665 382.547 105.12C389.563 102.973 395.914 100.151 402.682 97.957C401.51 101.653 400.995 110.555 400.601 114.687C399.776 123.319 399.227 132.98 397.668 141.503C396.893 145.778 396.05 150.23 395.156 154.458C394.478 157.671 390.959 168.281 391.726 170.817L391.94 171.258C392.964 173.415 383.129 202.091 381.807 205.894C377.875 217.204 372.498 229.699 365.845 239.729C364.173 241.89 362.483 244.134 360.735 246.228C363.564 246.243 366.736 246.232 369.511 246.824C401.885 253.728 419.234 286.74 428.738 315.517C430.363 320.439 431.321 326.12 432.306 331.124C426.612 329.575 419.678 329.186 413.8 329.201C404.544 329.162 395.307 330.035 386.223 331.807C380.659 332.85 374.975 334.401 369.431 335.694C345.106 341.366 311.509 342.107 295.493 318.973C293.583 347.569 273.319 363.946 248.568 373.931C236.36 378.855 222.632 385.29 210.699 390.987C205.886 393.255 201.19 395.766 196.631 398.509C193.393 400.475 190.087 402.748 186.844 404.626C191.538 377.35 176.829 358.825 167.637 335.009C161.447 318.972 167.156 302.906 177.595 290.353C180.449 286.809 186.925 279.183 190.349 276.145C182.813 291.386 167.919 302.917 168.715 321.045C168.898 325.229 168.998 329.276 170.51 333.255C176.64 349.39 186.475 364.497 189.901 381.586C190.852 386.327 190.824 393.725 190.703 398.608C203.433 389.8 218.346 384.343 232.259 377.685C233.965 376.869 235.755 376.082 237.479 375.298C261.478 367.048 286.494 352.002 291.716 325.035C293.958 313.459 290.586 301.553 286.892 290.521C285.961 287.647 283.376 283.108 283.526 280.269L282.868 280.217C284.034 275.145 284.301 270.806 282.79 265.793C279.568 255.102 270.255 245.555 260.48 240.497C264.688 240.393 267.895 238.963 271.766 236.987C285.677 229.883 292.005 214.734 297.275 200.938C298.269 198.337 298.244 194.332 299.173 191.566L299.416 191.922C299.668 191.1 299.913 190.276 300.149 189.449C300.397 189.417 300.517 189.457 300.669 189.23C308.493 177.567 316.113 165.012 317.3 150.667C317.754 145.186 317.87 140.017 318.108 134.68C320.737 130.948 323.973 128.423 327.432 125.504Z"/><path fill="#FCFCFD" d="M391.94 171.258C392.964 173.415 383.129 202.091 381.807 205.894C377.875 217.204 372.498 229.699 365.845 239.729C364.173 241.89 362.483 244.134 360.735 246.228C363.564 246.243 366.736 246.232 369.511 246.824C401.885 253.728 419.234 286.74 428.738 315.517C430.363 320.439 431.321 326.12 432.306 331.124C426.612 329.575 419.678 329.186 413.8 329.201C404.544 329.162 395.307 330.035 386.223 331.807C380.659 332.85 374.975 334.401 369.431 335.694C345.106 341.366 311.509 342.107 295.493 318.973C293.583 347.569 273.319 363.946 248.568 373.931C236.36 378.855 222.632 385.29 210.699 390.987C205.886 393.255 201.19 395.766 196.631 398.509C193.393 400.475 190.087 402.748 186.844 404.626C191.538 377.35 176.829 358.825 167.637 335.009C161.447 318.972 167.156 302.906 177.595 290.353C180.449 286.809 186.925 279.183 190.349 276.145C182.813 291.386 167.919 302.917 168.715 321.045C168.898 325.229 168.998 329.276 170.51 333.255C176.64 349.39 186.475 364.497 189.901 381.586C190.852 386.327 190.824 393.725 190.703 398.608C203.433 389.8 218.346 384.343 232.259 377.685C233.965 376.869 235.755 376.082 237.479 375.298C261.478 367.048 286.494 352.002 291.716 325.035C293.958 313.459 290.586 301.553 286.892 290.521C285.961 287.647 283.376 283.108 283.526 280.269C288.243 282.87 292.732 298.679 293.998 304.219C295.092 308.543 294.313 313.292 297.243 316.959C312.229 335.716 338.569 338.719 360.754 334.501C366.511 333.407 372.224 331.863 377.946 330.597C385.055 329.027 392.223 327.743 399.435 326.747C409.816 325.394 418.269 325.78 428.569 327.111C427.128 322.782 426.625 317.627 425.021 313.404C418.28 295.733 409.934 276.195 395.328 263.607C384.799 254.534 373.925 249.015 360.065 247.375C343.787 266.808 316.424 295.597 289.364 277.044C286.586 275.139 285.706 273.589 284.505 270.515C288.635 273.603 292.343 276.136 297.236 278.093C319.752 287.159 340.335 265.184 353.993 250.153C373.037 229.194 378.768 201.435 388.546 175.921C380.627 177.523 372.532 178.911 364.498 179.662C348.336 181.171 335.731 180.834 320.774 187.917C315.935 190.154 311.361 192.923 307.137 196.174C304.505 198.211 300.515 201.899 297.726 203.281L297.394 203.443C303.509 191.919 320.12 183.386 332.459 180.43C339.593 178.721 349.25 178.173 356.622 177.392C364.779 176.528 372.404 175.889 380.465 174.096C384.475 173.204 388.267 173.692 391.94 171.258Z"/><path fill="#373737" d="M327.432 125.504C341.621 112.083 364.426 110.665 382.547 105.12C389.563 102.973 395.914 100.151 402.682 97.957C401.51 101.653 400.995 110.555 400.601 114.687C399.776 123.319 399.227 132.98 397.668 141.503C397.282 141.362 397.056 141.278 396.726 141.012C394.908 139.554 393.705 139.447 391.488 139.207C389.903 136.646 390.803 135.378 387.639 134.766C388.19 133.565 388.814 132.66 388.404 131.511C388.355 129.074 385.186 129.562 383.478 129.723L385.781 125.695L385.317 124.74C384.54 125.839 383.589 127.272 382.783 128.311C382.093 125.802 384.575 124.166 382.962 122.668C382.056 121.827 380.837 122.819 379.152 122.274C378.936 122.478 377.937 123.448 377.76 123.566L377.244 123.231C376.6 123.497 376.423 123.62 375.842 123.979C374.084 125.531 371.804 128.179 370.198 129.975C368.962 127.77 368.755 127.636 366.198 128.075L365.325 127.645C364.036 125.909 363.406 126.207 361.838 125.085L361.461 124.81C363.919 123.012 368.738 119.683 370.75 117.627C362.998 121.206 356.49 126.745 349.464 131.52C347.608 132.781 346.058 133.983 344.373 135.474C342.099 132.546 339.907 133.213 337.022 134.531L336.679 134.092L336.659 133.532C335.719 133.063 332.172 131.259 331.599 130.65C329.58 128.504 330.226 127.249 327.432 125.504Z"/><path fill="#B2B4B5" d="M375.842 123.979C377.842 121.36 383.293 116.079 385.826 114.079C384.281 116.795 381.283 119.883 379.152 122.274C378.936 122.478 377.937 123.448 377.76 123.566L377.244 123.231C376.6 123.497 376.423 123.62 375.842 123.979Z"/><path fill="#B2B4B5" d="M385.317 124.74C386.29 123.037 388.108 119.68 389.175 118.146C388.48 121.287 387.704 123.047 385.781 125.695L385.317 124.74Z"/><path fill="#FCFCFD" d="M375.842 123.979C376.423 123.62 376.6 123.497 377.244 123.231L377.76 123.566C373.849 128.035 369.957 132.53 366.038 136.992C358.716 145.33 352.271 154.848 345.075 163.188L344.636 162.007C350.829 152.984 357.511 144.116 364.911 136.066C366.722 134.096 368.463 132.014 370.198 129.975C371.804 128.179 374.084 125.531 375.842 123.979Z"/><path fill="#FCFCFD" d="M344.373 135.474C346.058 133.983 347.608 132.781 349.464 131.52C356.49 126.745 362.998 121.206 370.75 117.627C368.738 119.683 363.919 123.012 361.461 124.81C353.396 130.309 345.457 135.419 338.937 142.809C334.498 147.84 330.87 153.484 325.953 158.041C328.281 152.387 339.585 139.819 344.373 135.474Z"/><path fill="#FCFCFD" d="M385.317 124.74L385.781 125.695L383.478 129.723L372.221 146.748C368.746 151.999 364.706 158.191 360.205 162.661L359.312 161.881C368.061 150.762 374.59 139.572 382.783 128.311C383.589 127.272 384.54 125.839 385.317 124.74Z"/><defs><linearGradient id="gradient_1" gradientUnits="userSpaceOnUse" x1="349.793" y1="145.78134" x2="347.46021" y2="143.54143"><stop offset="0" stop-color="#B2B7B6"/><stop offset="1" stop-color="white"/></linearGradient></defs><path fill="url(#gradient_1)" d="M365.325 127.645L366.198 128.075C356.344 135.897 348.119 144.085 340.092 153.879C337.834 156.634 336.007 160.344 333.669 163.25L332.923 162.312C335.533 158.976 337.173 155.667 339.432 152.625C345.577 144.355 356.571 133.103 365.325 127.645Z"/><path fill="#FCFCFD" d="M388.404 131.511C388.814 132.66 388.19 133.565 387.639 134.766C384.596 140.101 381.485 145.92 378.197 151.052C375.48 155.293 372.346 159.413 369.564 163.701L368.796 163.417C372.227 157.249 375.624 151.81 379.436 145.865C382.297 141.404 385.104 135.583 388.404 131.511Z"/><path fill="#B2B4B5" d="M336.679 134.092L337.022 134.531C336.133 135.634 333.379 138.174 332.167 139.378C329.601 141.964 327.054 144.569 324.527 147.193C326.437 143.084 332.906 136.189 336.679 134.092Z"/><path fill="#B2B4B5" d="M337.749 171.749C340.047 167.728 341.772 165.568 344.636 162.007L345.075 163.188C342.821 166.13 340.501 169.274 337.749 171.749Z"/><path fill="#B2B4B5" d="M332.923 162.312L333.669 163.25C332.028 165.315 330.723 166.639 328.777 168.388C329.426 166.778 331.79 163.822 332.923 162.312Z"/><path fill="#D3D5D7" d="M359.312 161.881L360.205 162.661C358.123 164.812 357.385 165.456 354.748 166.84C356.29 165.205 357.811 163.552 359.312 161.881Z"/><path fill="#B2B4B5" d="M366.443 166.899C367.04 165.863 368.018 164.29 368.796 163.417L369.564 163.701C368.466 165.156 367.826 165.755 366.443 166.899Z"/><path fill="#FCFCFD" d="M369.446 188.264L369.792 189.088C364.625 194.324 356.278 199.853 350.727 205.358C345.141 210.898 340.248 216.243 334.934 221.925C324.995 232.554 309.844 244.864 296.301 250.396L295.754 249.684C306.667 245.022 321.761 233.261 330.016 224.852C334.442 219.967 338.549 214.801 343.279 210.19C347.595 205.982 352.169 201.97 356.876 198.197C360.949 194.933 365.158 191.214 369.446 188.264Z"/><path fill="#FCFCFD" d="M355.207 287.615C368.665 288.131 384.4 290.178 397.007 295.134C400.929 296.676 405.63 300.281 409.178 302.708C412.37 304.891 415.504 306.713 417.77 309.908C415.247 308.4 412.751 306.554 410.344 304.949C397.235 296.2 382.241 292.235 366.768 290.287C362.812 289.789 358.53 289.218 354.502 288.567L355.207 287.615Z"/><path fill="#FCFCFD" d="M301.743 269.625C321.025 266.81 330.382 259.206 343.317 245.358C349.182 239.188 354.657 232.66 359.71 225.81C360.755 224.407 366.325 216.198 366.912 215.858L367.164 216.025C366.895 221.491 339.782 251.913 333.94 256.83C324.191 265.038 314.386 269.936 301.578 270.344L301.743 269.625Z"/><path fill="#FCFCFD" d="M333.566 293.284C342.163 296.554 351.257 297.612 360.295 298.887C368.329 299.953 376.338 301.192 384.319 302.602C389.848 303.61 397.493 304.816 402.072 308.007C399.525 307.709 396.819 306.899 394.325 306.246C379.915 302.471 364.7 302.742 350.251 299.016C344.565 297.55 338.354 296.275 332.954 294.011L333.566 293.284Z"/><defs><linearGradient id="gradient_2" gradientUnits="userSpaceOnUse" x1="329.74139" y1="237.41318" x2="335.39435" y2="243.35925"><stop offset="0" stop-color="#DBDCE3"/><stop offset="1" stop-color="white"/></linearGradient></defs><path fill="url(#gradient_2)" d="M361.699 212.736L361.858 213.013C361.457 215.013 354.657 222.898 353.06 224.882C347.233 232.124 340.343 239.027 333.855 245.713C325.531 254.292 312.857 262.847 301.095 265.145L300.953 264.984C301.267 264.145 308.228 262.165 309.716 261.455C326.039 253.664 338.172 239.15 350.301 226.168C354.401 221.779 357.12 216.902 361.699 212.736Z"/><path fill="#FCFCFD" d="M372.43 193.801L373.085 194.643C366.09 200.945 359.298 207.469 352.719 214.206C343.931 223.306 336.058 232.88 326.133 240.772C324.859 241.786 323.63 242.936 322.351 243.973L321.585 243.659C323.678 241.803 325.706 239.471 327.831 237.702C334.826 231.881 340.184 224.941 346.492 218.403C354.829 209.883 363.481 201.677 372.43 193.801Z"/><path fill="#D3D5D7" d="M355.532 190.572L355.673 190.765L355.477 191.249C353.129 193.031 349.415 195.724 346.942 197.124C337.791 202.304 330.198 209.404 321.987 215.822C313.761 222.251 296.206 238.205 285.884 238.695L285.731 238.653C287.375 237.846 289.166 237.327 290.842 236.625C301.413 232.194 309.955 224.248 318.754 217.017C330.494 207.369 342.137 197.921 355.532 190.572Z"/><defs><linearGradient id="gradient_3" gradientUnits="userSpaceOnUse" x1="355.97977" y1="308.01212" x2="355.40213" y2="311.43848"><stop offset="0" stop-color="#CDCDCB"/><stop offset="1" stop-color="#FFFEFF"/></linearGradient></defs><path fill="url(#gradient_3)" d="M326.564 302.878C336.307 306.409 346.339 309.083 356.547 310.87C363.083 311.988 383.976 314.049 388.415 316.115C383.695 316.03 377.95 315.022 373.2 314.513C355.939 312.664 341.58 309.605 325.342 303.428L326.564 302.878Z"/><path fill="#FCFCFD" d="M300.991 221.541C303.392 218.869 306.288 216.56 309.077 214.297C313.559 210.599 318.2 207.098 322.987 203.804C326.698 201.264 330.542 198.837 334.226 196.282C336.837 194.472 339.092 191.259 342.284 190.137C336.064 197.37 330.174 199.855 322.813 205.381C316.034 210.471 307.851 216.321 301.403 221.786L300.991 221.541Z"/><defs><linearGradient id="gradient_4" gradientUnits="userSpaceOnUse" x1="380.03778" y1="284.80267" x2="381.01379" y2="280.67044"><stop offset="0" stop-color="#D3D7D5"/><stop offset="1" stop-color="white"/></linearGradient></defs><path fill="url(#gradient_4)" d="M364.595 277.596C374.228 278.285 382.883 280.213 391.492 284.815C394.036 286.174 396.586 287.506 398.376 289.831C395.481 288.422 392.747 286.62 389.839 285.351C382.204 282.02 371.372 279.352 363.089 278.59C363.709 277.902 363.67 277.859 364.595 277.596Z"/><path fill="#D3D5D7" d="M320.092 225.34L319.846 226.472C318.682 227.272 316.005 229.667 314.672 230.716C310.853 233.722 307.328 236.19 303.319 238.805C296.088 243.52 288.299 243.403 279.947 243.07C278.257 243.002 275.16 243.029 273.635 242.664L273.454 242.364C274.387 242.09 285.325 242.03 286.876 242.072C301.649 242.47 308.727 233.469 320.092 225.34Z"/><path fill="#FCFCFD" d="M369.37 271.438C370.216 270.76 370.725 270.908 371.891 270.915C383.201 273.062 395.578 276.273 403.761 284.921L403.235 285.592C393.505 277.291 381.638 273.765 369.37 271.438Z"/><path fill="#FCFCFD" d="M364.97 306.856C365.603 306.797 366.238 306.774 366.873 306.788C374.264 306.985 398.333 310.713 403.029 315.753C400.741 315.479 397.194 313.774 394.864 313.052C388.554 311.097 382.013 309.705 375.498 308.645C372.197 308.107 368.416 308.136 365.185 307.339L364.97 306.856Z"/><path fill="#B2B4B5" d="M311.935 307.995C313.655 308.05 324.496 313.693 327.18 314.734C331.13 316.266 335.279 317.994 339.526 319.279C342.016 320.033 348.059 321.017 349.637 322.471C341.487 322.052 317.46 312.702 311.935 307.995Z"/><path fill="#D3D5D7" d="M317.19 318.88C326.916 323.806 334.137 325.749 344.156 328.847C337.836 329.423 322.88 322.846 317.02 319.592L317.19 318.88Z"/><path fill="#D3D5D7" d="M366.799 263.737C372.002 263.915 381.414 265.811 386.259 267.645L385.21 268.44C377.148 265.639 370.947 265.408 362.89 264.496L362.74 264.355C362.131 264.266 361.64 264.171 361.041 264.049L361.494 264.117L361.639 263.892C363.359 263.86 365.079 263.809 366.799 263.737Z"/><path fill="#D3D5D7" d="M389.653 144.912C390.732 148.096 382.106 160.292 379.476 162.865L379.397 162.425C379.659 161.719 389.312 145.313 389.653 144.912Z"/><path fill="#B2B4B5" d="M354.502 288.567C348.355 287.881 342.138 287.555 336.038 286.769L335.93 286.361L335.791 286.367L335.665 286.701L335.031 286.502L335.404 286.339L335.419 286.595L335.544 286.62L335.8 286.301C340.035 286.049 350.796 287.032 355.207 287.615L354.502 288.567Z"/><path fill="#B2B4B5" d="M362.89 264.496C360.669 264.778 357.402 264.665 355.051 264.861C353.616 264.981 351.313 265.219 350.006 265.154L350.016 264.957C354.226 263.068 362.36 262.877 366.799 263.737C365.079 263.809 363.359 263.86 361.639 263.892L361.494 264.117L361.041 264.049C361.64 264.171 362.131 264.266 362.74 264.355L362.89 264.496Z"/><path fill="#D3D5D7" d="M368.784 320.117C370.434 319.923 382.744 320.113 383.834 320.572L383.663 320.858C383.259 320.95 382.85 321.022 382.439 321.075C380.237 321.355 370.204 321.718 368.664 320.521L368.784 320.117Z"/><path fill="#B2B4B5" d="M315.258 297.883C318.875 299.629 322.768 301.605 326.564 302.878L325.342 303.428C321.5 302.058 318.653 300.501 315.057 298.608L315.258 297.883Z"/><path fill="#B2B4B5" d="M363.089 278.59C359.5 278.071 355.985 278.039 352.356 277.658L352.456 277.385C352.138 277.414 352.077 277.383 351.8 277.504C353.861 276.91 362.26 277.384 364.595 277.596C363.67 277.859 363.709 277.902 363.089 278.59Z"/><path fill="#909092" d="M332.954 294.011C331.193 293.37 325.773 291.676 325.023 290.345L325.246 290.22C327.801 291.461 330.85 292.377 333.566 293.284L332.954 294.011Z"/><path fill="#909092" d="M292.718 269.4C294.889 269.226 299.383 269.523 301.743 269.625L301.578 270.344C299.044 270.769 295.25 269.913 292.718 269.4Z"/><path fill="#909092" d="M374.771 182.359C373.457 185.31 372.174 186.859 369.792 189.088L369.446 188.264C371.063 186.317 373.047 184.243 374.771 182.359Z"/><path fill="#909092" d="M361.108 270.255C364.715 270.164 368.323 270.384 371.891 270.915C370.725 270.908 370.216 270.76 369.37 271.438C367.746 271.574 362.797 270.637 361.108 270.255Z"/><path fill="#909092" d="M296.301 250.396C292.879 251.554 290.789 251.717 287.623 252.633L287.387 252.703L287.27 252.412C288.539 252.234 294.288 250.167 295.754 249.684L296.301 250.396Z"/><path fill="#D3D5D7" d="M377.331 189.661C375.967 191.805 374.992 192.949 373.085 194.643L372.43 193.801C374.113 192.302 375.558 191.053 377.331 189.661Z"/><path fill="#B2B4B5" d="M386.259 267.645C388.181 268.248 389.421 268.885 391.097 270.032C389.629 269.618 386.597 268.671 385.21 268.44L386.259 267.645Z"/><path fill="#626265" d="M315.057 298.608C313.907 298.004 311.52 296.842 310.684 295.929L310.929 295.755L310.768 296.047L311.1 295.796L310.879 296.166L311.03 296.307L311.462 295.922C312.391 296.306 314.298 297.377 315.258 297.883L315.057 298.608Z"/><path fill="#626265" d="M317.02 319.592C315.428 318.875 313.694 317.692 312.342 316.588C314.09 317.306 315.501 318.02 317.19 318.88L317.02 319.592Z"/><path fill="#373737" d="M301.403 221.786C300.625 222.452 299.244 223.776 298.243 223.759C298.598 222.955 300.178 222.077 300.991 221.541L301.403 221.786Z"/><path fill="#909092" d="M323.246 223.1C321.996 224.657 321.376 225.175 319.846 226.472L320.092 225.34C321.091 224.458 322.133 223.829 323.246 223.1Z"/><path fill="#B2B4B5" d="M321.585 243.659L322.351 243.973C321.008 245.061 320.007 245.68 318.547 246.598C319.602 245.506 320.454 244.67 321.585 243.659Z"/><path fill="#B2B4B5" d="M403.761 284.921C404.864 286.003 405.167 286.356 406.1 287.594C405.266 287.039 403.954 286.223 403.235 285.592L403.761 284.921Z"/><defs><linearGradient id="gradient_5" gradientUnits="userSpaceOnUse" x1="259.07419" y1="184.32637" x2="273.49393" y2="71.653236"><stop offset="0" stop-color="#0B0A0A"/><stop offset="1" stop-color="#3F3E3F"/></linearGradient></defs><path fill="url(#gradient_5)" d="M216.664 111.054C219.275 104.034 222.93 97.9953 227.199 91.8977C229.993 87.9069 232.373 83.6971 235.555 80.0128C246.092 67.8128 259.526 59.8266 272.298 50.359C274.878 48.4464 277.9 46.7876 280.498 44.8569C283.636 51.9208 287.697 58.2395 291.337 65.0498C298.155 77.809 304.025 91.3219 310.089 104.458C313.475 111.791 316.515 123.122 317.423 131.119C321.233 127.292 324.862 123.464 329.235 120.262C342.773 110.347 359.156 108.368 374.912 104.435C384.699 101.993 395.896 97.8527 405.3 94.0695C401.555 115.881 402.388 135.569 397.43 158.407C419.217 151.503 436.645 150.108 459.387 152.196C451.359 166.539 443.495 179.439 438.684 195.244C437.981 197.553 435.461 200.914 434.541 203.279C432.701 207.013 430.379 211.16 428.025 214.577C419.619 226.861 407.176 235.814 392.856 239.88C388.511 241.101 369.873 244.075 366.769 241.087L366.845 240.649L367.441 240.381C366.77 240.182 367.088 240.342 366.583 239.661L365.845 239.729C372.498 229.699 377.875 217.204 381.807 205.894C383.129 202.091 392.964 173.415 391.94 171.258L391.726 170.817C390.959 168.281 394.478 157.671 395.156 154.458C396.05 150.23 396.893 145.778 397.668 141.503C399.227 132.98 399.776 123.319 400.601 114.687C400.995 110.555 401.51 101.653 402.682 97.957C395.914 100.151 389.563 102.973 382.547 105.12C364.426 110.665 341.621 112.083 327.432 125.504C323.973 128.423 320.737 130.948 318.108 134.68C317.87 140.017 317.754 145.186 317.3 150.667C316.113 165.012 308.493 177.567 300.669 189.23C300.517 189.457 300.397 189.417 300.149 189.449C299.913 190.276 299.668 191.1 299.416 191.922L299.173 191.566C300.484 173.157 298.093 167.227 280.139 161.187C266.268 156.384 251.322 155.602 237.026 158.93C231.785 160.181 226.734 162.802 221.792 163.928L220.869 163.921C217.807 164.016 215.862 156.72 215.019 154.203C210.381 140.359 212.745 127.093 215.78 113.338C213.043 109.778 210.836 106.704 207.646 103.464C196.456 92.099 180.519 87.1223 165.125 84.8252C161.941 84.35 158.777 83.9796 155.622 83.3445C158.454 94.9577 157.636 103.083 157.284 114.666C157.171 118.361 157.761 123.806 157.76 128.003C156.802 128.608 157.125 128.611 156.246 128.471C152.715 125.547 154.931 102.053 154.731 96.7606C154.512 90.9975 153.172 86.1826 152.347 80.699C171.444 81.0806 196.949 88.3029 210.378 102.448C212.523 104.708 215.371 108.223 216.664 111.054ZM247.283 145.151C247.375 144.301 247.719 141.584 247.679 140.884C247.47 139.852 247.479 139.505 246.898 138.667C246.753 141.209 246.81 142.623 247.283 145.151Z"/><path fill="#D3D5D7" fill-opacity="0.98431373" d="M246.898 138.667C247.479 139.505 247.47 139.852 247.679 140.884C247.719 141.584 247.375 144.301 247.283 145.151C246.81 142.623 246.753 141.209 246.898 138.667Z"/><defs><linearGradient id="gradient_6" gradientUnits="userSpaceOnUse" x1="372.22983" y1="243.16861" x2="439.24115" y2="145.55464"><stop offset="0" stop-color="#0D0D0E"/><stop offset="1" stop-color="#2A2929"/></linearGradient></defs><path fill="url(#gradient_6)" d="M396.456 161.27C412.002 156.523 424.882 154.241 441.333 154.286C445.839 154.298 449.977 154.63 454.37 154.749C451.339 160.561 447.256 166.616 444.618 172.402C442.385 177.298 440.497 183.167 438.265 188.249C429.036 209.269 417.942 229.217 394.453 236.46C384.722 239.461 377.398 239.709 367.441 240.381C366.77 240.182 367.088 240.342 366.583 239.661L365.845 239.729C372.498 229.699 377.875 217.204 381.807 205.894C383.129 202.091 392.964 173.415 391.94 171.258L391.726 170.817C393.89 169.715 395.61 163.669 396.456 161.27Z"/><path fill="#FCFCFD" d="M438.266 166.651L438.545 166.782L438.598 167.272C436.863 170.943 432.185 175.284 429.712 178.735C422.949 188.171 416.547 196.832 408.281 204.993C402.102 211.094 398.961 215.013 390.573 218.528L390.244 218.504L390.09 218.285C390.768 217.561 394.582 215.464 395.736 214.706C398.653 212.772 401.333 210.502 403.722 207.945C407.06 204.358 412.707 198.591 415.575 194.942C423.372 185.025 429.521 175.946 438.266 166.651Z"/><path fill="#FCFCFD" d="M432.683 164.677L432.928 164.915C432.763 166.162 425.454 173.307 424.163 174.641C413.5 185.654 403.578 200.058 392.696 210.613C392.451 210.434 392.564 210.566 392.481 210.137C393.792 207.357 398.855 202.34 401.001 199.667C408.574 190.238 416.152 180.692 424.715 172.137C427.274 169.581 429.831 166.926 432.683 164.677Z"/><path fill="#FCFCFD" d="M397.123 192.764C402.112 186.607 415.62 170.886 422.726 168.252L423.051 168.388C422.031 169.956 412.77 177.535 410.241 180.165C406.012 184.561 401.921 189.414 397.792 193.78L397.123 192.764Z"/><path fill="#D3D5D7" d="M433.901 183.208L434.159 183.629C433.202 188.963 413.805 210.271 408.496 212.986L408.404 212.742C408.82 212.061 411.797 209.261 412.575 208.421C418.348 202.188 424.489 196.209 429.439 189.273C430.878 187.256 432.276 185.04 433.901 183.208Z"/><path fill="#D3D5D7" d="M412.976 215.728C413.147 215.907 413.04 215.771 413.173 216.209C409.641 222.237 394.99 227.707 388.378 229.537L388.181 229.25C389.476 227.891 396.401 226.161 398.98 224.841C404.387 222.074 408.113 219.194 412.976 215.728Z"/><path fill="#FCFCFD" d="M421.518 163.525C421.644 163.638 421.769 163.751 421.895 163.864C421.582 164.447 417.835 166.482 416.905 167.083C411.342 170.674 406.108 174.737 400.671 178.479L400.388 178.367L400.377 177.895C403.443 174.084 416.807 165.508 421.518 163.525Z"/><path fill="#626265" d="M399.418 218.252C399.767 218.204 399.547 218.21 400.073 218.348C398.933 219.899 389.342 222.744 387.306 223.22C387.181 223.265 386.859 223.291 386.711 223.309C387.678 222.366 397.498 218.954 399.418 218.252Z"/><path fill="#121212" d="M406.237 213.913L406.645 214.324C406.352 215.576 402.371 217.636 401.155 218.234L400.804 218.093C401.207 217.026 405.058 214.696 406.237 213.913Z"/><path fill="#D3D5D7" d="M397.123 192.764L397.792 193.78C396.976 194.588 396.039 195.251 395.121 195.948C395.791 194.681 396.319 193.924 397.123 192.764Z"/><path fill="#FCFCFD" d="M216.664 111.054C219.275 104.034 222.93 97.9953 227.199 91.8977C229.993 87.9069 232.373 83.6971 235.555 80.0128C246.092 67.8128 259.526 59.8266 272.298 50.359C274.878 48.4464 277.9 46.7876 280.498 44.8569C283.636 51.9208 287.697 58.2395 291.337 65.0498C298.155 77.809 304.025 91.3219 310.089 104.458C313.475 111.791 316.515 123.122 317.423 131.119C321.233 127.292 324.862 123.464 329.235 120.262C342.773 110.347 359.156 108.368 374.912 104.435C384.699 101.993 395.896 97.8527 405.3 94.0695C401.555 115.881 402.388 135.569 397.43 158.407C419.217 151.503 436.645 150.108 459.387 152.196C451.359 166.539 443.495 179.439 438.684 195.244C437.981 197.553 435.461 200.914 434.541 203.279C432.701 207.013 430.379 211.16 428.025 214.577C419.619 226.861 407.176 235.814 392.856 239.88C388.511 241.101 369.873 244.075 366.769 241.087L366.845 240.649L367.441 240.381C377.398 239.709 384.722 239.461 394.453 236.46C417.942 229.217 429.036 209.269 438.265 188.249C440.497 183.167 442.385 177.298 444.618 172.402C447.256 166.616 451.339 160.561 454.37 154.749C449.977 154.63 445.839 154.298 441.333 154.286C424.882 154.241 412.002 156.523 396.456 161.27C395.61 163.669 393.89 169.715 391.726 170.817C390.959 168.281 394.478 157.671 395.156 154.458C396.05 150.23 396.893 145.778 397.668 141.503C399.227 132.98 399.776 123.319 400.601 114.687C400.995 110.555 401.51 101.653 402.682 97.957C395.914 100.151 389.563 102.973 382.547 105.12C364.426 110.665 341.621 112.083 327.432 125.504C323.973 128.423 320.737 130.948 318.108 134.68C317.87 140.017 317.754 145.186 317.3 150.667C316.113 165.012 308.493 177.567 300.669 189.23C300.517 189.457 300.397 189.417 300.149 189.449C302.023 182.316 307.852 173.04 310.486 165.905C312.628 160.101 313.391 156.006 314.191 150.021C317.37 126.248 308.321 106.892 299.01 85.7103C293.751 73.4325 285.992 60.6045 279.42 48.7695C274.201 51.9761 269.051 55.7923 264.068 59.3673C258.561 63.319 253.44 66.7609 248.449 71.3814C239.215 78.85 236.017 83.3086 229.503 93.0127C214.119 115.93 211.666 138.012 220.869 163.921C217.807 164.016 215.862 156.72 215.019 154.203C210.381 140.359 212.745 127.093 215.78 113.338C213.043 109.778 210.836 106.704 207.646 103.464C196.456 92.099 180.519 87.1223 165.125 84.8252C161.941 84.35 158.777 83.9796 155.622 83.3445C158.454 94.9577 157.636 103.083 157.284 114.666C157.171 118.361 157.761 123.806 157.76 128.003C156.802 128.608 157.125 128.611 156.246 128.471C152.715 125.547 154.931 102.053 154.731 96.7606C154.512 90.9975 153.172 86.1826 152.347 80.699C171.444 81.0806 196.949 88.3029 210.378 102.448C212.523 104.708 215.371 108.223 216.664 111.054Z"/><path fill="#373737" d="M279.42 48.7695C285.992 60.6045 293.751 73.4325 299.01 85.7103C298.4 86.179 297.012 86.2803 296.262 86.4414C292.654 87.2173 289.557 87.1471 286.098 85.7058C284.975 85.2378 282.513 84.5187 281.295 84.7273L281.35 82.4557L280.446 81.8307L280.589 80.2557L280.428 79.6007C278.324 77.9429 277.558 78.0227 275.356 77.2586C275.55 76.2245 275.889 75.0066 276.147 73.9687L275.244 73.4902L276.095 69.4708L275.692 69.4636C275.149 71.0168 275.289 71.7661 274.646 73.3515L274.258 73.4061L274.42 71.9624L274.162 71.6736C273.383 71.8556 273.208 72.1618 272.657 72.7469C271.911 72.7973 271.342 72.9085 270.631 72.7547C271.375 70.1621 272.465 66.5495 272.592 63.927C270.649 67.8683 269.844 73.0859 268.199 76.7036C266.619 76.0284 265.997 74.1148 263.436 73.9691L262.927 73.2786C263.494 71.5688 264.04 69.8522 264.565 68.129C262.971 70.3241 262.38 71.9157 261.416 74.4611C259.399 72.8097 255.005 75.5122 252.692 74.7639C252.074 74.5637 251.527 73.4299 250.272 72.9019C249.397 73.0527 249.24 73.1171 248.338 72.9584L248.085 72.5868L248.573 71.8045L248.449 71.3814C253.44 66.7609 258.561 63.319 264.068 59.3673C269.051 55.7923 274.201 51.9761 279.42 48.7695Z"/><path fill="#D3D5D7" d="M276.095 69.4708C276.932 66.638 277.764 63.6987 279.123 61.0888C278.365 65.4848 276.868 69.73 276.147 73.9687L275.244 73.4902L276.095 69.4708Z"/><path fill="#B2B4B5" d="M280.589 80.2557C280.886 78.5015 281.2 76.228 281.733 74.5814C281.749 76.7616 281.743 80.3541 281.35 82.4557L280.446 81.8307L280.589 80.2557Z"/><path fill="#FCFCFD" d="M272.592 63.927C272.465 66.5495 271.375 70.1621 270.631 72.7547C267.534 82.8072 265.922 93.1645 263.406 103.348C261.363 111.615 259.976 119.834 258.86 128.264C258.549 130.612 258.25 133.416 257.773 135.705L257.374 136.681L257.123 136.724L256.66 134.954C257.491 124.699 258.935 113.501 261.027 103.441C261.826 99.5988 263.427 94.6742 264.513 90.8131C265.79 86.1227 267.019 81.4193 268.199 76.7036C269.844 73.0859 270.649 67.8683 272.592 63.927Z"/><defs><linearGradient id="gradient_7" gradientUnits="userSpaceOnUse" x1="255.82013" y1="105.17616" x2="251.96407" y2="104.34789"><stop offset="0" stop-color="#C7CCD0"/><stop offset="1" stop-color="white"/></linearGradient></defs><path fill="url(#gradient_7)" d="M261.416 74.4611C262.38 71.9157 262.971 70.3241 264.565 68.129C264.04 69.8522 263.494 71.5688 262.927 73.2786C261.387 77.0558 260.19 80.9514 259.012 84.8522C255.218 97.4184 251.78 110.223 249.692 123.194C248.761 128.979 248.29 135.043 247.679 140.884C247.47 139.852 247.479 139.505 246.898 138.667C248.042 123.277 249.639 109.825 254.298 94.929C256.484 87.9426 259.165 81.3444 261.416 74.4611Z"/><path fill="#FCFCFD" d="M280.446 81.8307L281.35 82.4557L281.295 84.7273C281.094 91.0244 280.227 98.4256 279.268 104.694C277.773 114.458 277.351 125.027 275.668 134.662C275.219 133.239 274.994 132.693 274.95 131.164C275.016 125.99 275.897 116.884 276.484 111.646C277.503 102.551 278.512 90.6609 280.446 81.8307Z"/><path fill="#FCFCFD" d="M275.244 73.4902L276.147 73.9687C275.889 75.0066 275.55 76.2245 275.356 77.2586C272.118 92.6669 270.287 104.704 268.469 120.252C268.23 120.519 268.391 120.387 267.936 120.578L267.445 119.499C268.008 103.455 271.153 89.0101 275.244 73.4902Z"/><path fill="#B2B4B5" d="M267.445 119.499L267.936 120.578C268.391 120.387 268.23 120.519 268.469 120.252C268.826 123.05 267.429 130.745 266.538 133.497C266.658 129.015 266.939 123.956 267.445 119.499Z"/><path fill="#B2B4B5" d="M257.773 135.705C257.771 138.118 257.403 140.438 257.023 142.809L256.73 142.958L256.859 143.511C256.073 142.447 256.538 136.464 256.66 134.954L257.123 136.724L257.374 136.681L257.773 135.705Z"/><path fill="#D3D5D7" d="M275.669 141.895C274.49 138.439 274.45 134.764 274.95 131.164C274.994 132.693 275.219 133.239 275.668 134.662C275.774 135.269 275.662 140.79 275.669 141.895Z"/><path fill="#FCFCFD" d="M250.796 84.8183C251.406 85.1258 251.167 84.9207 251.48 85.4894C245.271 103.391 239.12 124.191 239.241 143.259L238.288 143.302C237.537 123.896 243.011 102.518 250.796 84.8183Z"/><path fill="#FCFCFD" d="M283.433 135.586C283.617 131.284 284.49 125.355 285.052 120.974C285.956 114.019 286.741 107.048 287.405 100.066C287.572 98.1783 287.931 90.3399 288.669 89.3012C289.995 93.89 286.939 120.01 286.088 125.777C285.768 127.949 284.757 133.158 284.36 135.635L283.433 135.586Z"/><path fill="#FCFCFD" d="M240.931 87.782L241.706 88.4624C237.501 97.7982 234.141 106.72 232.607 116.884C231.92 121.431 231.634 127.228 230.75 131.554L230.406 132.378L230.042 132.514L229.64 131.799C229.751 128.454 230.288 125.154 230.59 121.873C231.829 108.414 234.698 99.6707 240.931 87.782Z"/><defs><linearGradient id="gradient_8" gradientUnits="userSpaceOnUse" x1="292.91751" y1="122.71102" x2="295.4241" y2="122.80128"><stop offset="0" stop-color="#D5D6DA"/><stop offset="1" stop-color="white"/></linearGradient></defs><path fill="url(#gradient_8)" d="M294.719 107.667C294.538 105.869 294.703 101.222 295.212 99.5888L295.497 99.4628L295.614 99.6699L295.435 99.6873C295.9 100.124 295.732 100.465 295.771 101.344C298.05 113.396 294.523 131.464 292.661 143.388C292.132 142.666 292.181 142.468 292.119 141.586C293.243 134.204 293.759 126.047 294.305 118.593C294.567 115.016 294.384 111.313 294.719 107.667Z"/><path fill="#FCFCFD" d="M294.719 107.667C294.538 105.869 294.703 101.222 295.212 99.5888L295.497 99.4628L295.614 99.6699L295.435 99.6873C295.9 100.124 295.732 100.465 295.771 101.344C294.788 103.539 295.342 107.86 294.906 109.728L294.719 107.667Z"/><path fill="#B2B4B5" d="M302.032 124.182C304.682 126.687 300.196 143.401 298.659 146.609L298.345 146.599C298.305 145.042 300.96 136.398 301.228 133.776C301.434 131.772 301.67 125.465 302.032 124.182Z"/><path fill="#B2B4B5" d="M230.75 131.554C230.796 136.223 229.697 143.019 229.543 148.221C229.111 145.001 228.982 134.94 229.64 131.799L230.042 132.514L230.406 132.378L230.75 131.554Z"/><path fill="#B2B4B5" d="M240.931 87.782C242.259 85.0771 243.021 83.7161 244.95 81.4044C243.902 83.9895 242.943 85.9715 241.706 88.4624L240.931 87.782Z"/><path fill="#B2B4B5" d="M253.777 78.5509C253.085 80.8876 252.319 83.2016 251.48 85.4894C251.167 84.9207 251.406 85.1258 250.796 84.8183C251.442 82.5552 252.49 80.5128 253.777 78.5509Z"/><path fill="#909092" d="M292.661 143.388C292.831 144.283 292.163 147.103 291.947 148.102L291.799 147.958C291.584 145.55 291.754 143.979 292.119 141.586C292.181 142.468 292.132 142.666 292.661 143.388Z"/><path fill="#B2B4B5" d="M238.288 143.302L239.241 143.259C239.292 145.747 239.108 146.96 238.604 149.383C238.215 147.242 238.279 145.464 238.288 143.302Z"/><path fill="#B2B4B5" d="M283.433 135.586L284.36 135.635C284.104 137.257 283.651 139.25 283.327 140.891C283.228 139.217 283.081 137.211 283.433 135.586Z"/><path fill="#373737" d="M155.622 83.3445C158.777 83.9796 161.941 84.35 165.125 84.8252C180.519 87.1223 196.456 92.099 207.646 103.464C210.836 106.704 213.043 109.778 215.78 113.338C212.745 127.093 210.381 140.359 215.019 154.203C215.862 156.72 217.807 164.016 220.869 163.921L221.792 163.928C218.597 165.653 214.172 168.179 211.431 170.602C206.354 175.073 202.369 179.57 199.964 186.074C200.844 188.485 201.552 190.819 202.318 193.264C205.862 204.583 210.982 217.041 218.438 226.303L217.949 227.016L217.589 227.372C214.128 226.986 209.77 226.498 206.28 226.497C193.896 226.496 181.246 228.036 168.984 225.724C160.203 224.068 150.339 220.261 142.769 215.378C139.381 213.234 136.244 210.068 132.706 208.261C130.656 207.215 126.768 207.092 124.453 206.55C100.583 200.966 84.0072 213.92 65.8781 227.185C59.3565 231.97 52.6436 236.489 45.7558 240.729C42.9114 242.512 39.0426 245.035 36.1303 246.542C44.6372 252.103 53.3473 259.391 61.7015 265.242C66.6386 268.701 73.6011 272.094 78.9843 275.332C84.9937 278.947 91.9597 283.31 98.1623 286.314C113.9 293.934 130.944 297.39 148.249 293.701C163.724 290.403 174.015 283.17 187.051 274.987L187.954 275.366C185.649 277.205 183.305 279.983 180.854 281.9C172.556 288.389 161.966 293.543 151.786 296.033C122.655 303.158 100.064 292.598 76.0185 277.349C68.6535 272.678 62.3789 269.266 54.9932 264.04L39.193 252.812C36.737 251.058 32.9989 248.199 30.5342 246.739L30.2646 246.583C35.1869 244.319 38.9848 241.053 43.5244 238.598C70.0235 224.27 92.7156 193.496 126.555 204.189C127.474 203.891 127.394 203.455 127.668 202.615C124.345 199.578 120.683 196.411 117.606 193.162C95.9455 170.291 93.791 144.538 94.4969 114.725C109.616 119.632 124.316 123.979 140.024 126.683C145.289 127.589 150.51 129.029 155.86 129.523C156.324 129.471 156.787 129.416 157.25 129.357C157.765 128.978 157.723 128.995 157.986 128.404L157.76 128.003C157.761 123.806 157.171 118.361 157.284 114.666C157.636 103.083 158.454 94.9577 155.622 83.3445ZM116.598 155.266L116.801 154.27C115.395 152.753 112.905 150.562 111.152 149.477C112.942 151.595 114.566 153.363 116.598 155.266Z"/><path fill="#FCFCFD" d="M94.4969 114.725C109.616 119.632 124.316 123.979 140.024 126.683C145.289 127.589 150.51 129.029 155.86 129.523C159.222 130.218 162.815 130.765 165.998 131.77C180.879 136.469 193.711 145.286 203.041 157.852C205.123 160.656 207.584 163.457 209.5 166.421C210.17 167.394 211.3 168.92 210.657 170.004C206.522 164.685 202.049 159.861 197.479 154.874C185.86 142.197 169.457 134.993 152.885 131.453C148.652 130.549 144.136 130.485 139.886 129.542C125.6 126.713 110.126 123.608 96.506 118.399L96.5408 118.71C97.2438 125.509 96.8247 132.659 97.7318 139.625C99.468 152.958 103.14 168.509 111.082 179.759C124.311 198.496 144.765 216.885 167.664 222.164C177.175 224.356 187.799 223.433 197.491 223.551C204.369 223.634 212.661 221.783 217.949 227.016L217.589 227.372C214.128 226.986 209.77 226.498 206.28 226.497C193.896 226.496 181.246 228.036 168.984 225.724C160.203 224.068 150.339 220.261 142.769 215.378C139.381 213.234 136.244 210.068 132.706 208.261C130.656 207.215 126.768 207.092 124.453 206.55C100.583 200.966 84.0072 213.92 65.8781 227.185C59.3565 231.97 52.6436 236.489 45.7558 240.729C42.9114 242.512 39.0426 245.035 36.1303 246.542C44.6372 252.103 53.3473 259.391 61.7015 265.242C66.6386 268.701 73.6011 272.094 78.9843 275.332C84.9937 278.947 91.9597 283.31 98.1623 286.314C113.9 293.934 130.944 297.39 148.249 293.701C163.724 290.403 174.015 283.17 187.051 274.987L187.954 275.366C185.649 277.205 183.305 279.983 180.854 281.9C172.556 288.389 161.966 293.543 151.786 296.033C122.655 303.158 100.064 292.598 76.0185 277.349C68.6535 272.678 62.3789 269.266 54.9932 264.04L39.193 252.812C36.737 251.058 32.9989 248.199 30.5342 246.739L30.2646 246.583C35.1869 244.319 38.9848 241.053 43.5244 238.598C70.0235 224.27 92.7156 193.496 126.555 204.189C127.474 203.891 127.394 203.455 127.668 202.615C124.345 199.578 120.683 196.411 117.606 193.162C95.9455 170.291 93.791 144.538 94.4969 114.725Z"/><path fill="#373737" d="M127.668 202.615C128.856 203.774 130.056 204.92 131.267 206.053C129.818 205.427 128.044 204.594 126.555 204.189C127.474 203.891 127.394 203.455 127.668 202.615Z"/><path fill="#FCFCFD" d="M115.289 144.579L116.3 144.005C122.586 149.075 129.344 154.426 136.284 158.563C141.735 161.812 147.883 164.624 153.479 167.825C159.373 171.196 164.601 174.798 170.152 178.716C173.161 180.839 176.695 183.027 179.456 185.437L178.564 186.113C169.37 178.555 156.464 172.198 146.008 166.436C142.501 164.504 138.654 162.96 135.233 160.777C128.167 156.269 121.165 150.525 115.289 144.579Z"/><path fill="#FCFCFD" d="M116.801 154.27C129.02 163.405 140.879 170.753 153.559 179.113C161.429 184.303 169.64 191.79 177.381 197.628L176.711 198.286C168.774 193.1 161.627 187.256 153.587 182.101C141.053 174.065 127.815 165.101 116.598 155.266L116.801 154.27Z"/><path fill="#FCFCFD" d="M115.18 135.775C119.646 137.373 125.67 140.855 130.173 142.941C139.335 147.425 149.131 151.283 157.906 156.512C163.816 160.034 169.871 164.553 175.755 168.27C178.296 169.876 181.398 172.741 183.633 174.763L182.909 175.289C179.277 172.459 175.622 169.666 171.802 167.089C169.957 165.821 167.824 164.869 165.953 163.666C153.265 155.505 139.242 149.894 126.213 142.338C122.48 140.173 118.62 138.471 115.18 135.775Z"/><path fill="#FCFCFD" d="M108.187 153.387L108.527 153.635C111.283 155.608 114.42 159.196 117.195 161.597C130.482 173.088 142.923 183.371 157.783 192.912L157.303 193.696C148.857 188.834 141.152 184.466 133.522 178.179C129.438 174.814 125.686 170.991 121.732 167.531C116.091 162.594 112.104 160.034 108.187 153.387Z"/><path fill="#FCFCFD" d="M137.827 138.873C155.201 143.885 171.515 152.024 185.968 162.89L185.111 163.313C179.101 159.642 173.472 156.584 167.257 153.266C158.693 148.693 147.378 142.468 138.004 139.883L137.827 138.873Z"/><path fill="#FCFCFD" d="M168.081 93.9433C178.282 99.7297 188.956 120.357 194.662 131.015L194.337 131.868C190.045 126.193 185.599 118.414 181.637 112.288C176.889 104.947 173.647 100.567 168.081 93.9433Z"/><defs><linearGradient id="gradient_9" gradientUnits="userSpaceOnUse" x1="142.92496" y1="190.19827" x2="141.23134" y2="192.89526"><stop offset="0" stop-color="#D4D7D5"/><stop offset="1" stop-color="white"/></linearGradient></defs><path fill="url(#gradient_9)" d="M121.253 176.524C125.707 179.173 127.796 181.558 131.749 184.801C134.989 187.459 139.066 190.263 142.566 192.566C146.027 194.802 149.61 196.843 153.299 198.681C156.735 200.435 160.411 202.105 163.479 204.412L162.683 204.799C157.594 202.019 152.216 199.599 147.13 196.852C137.399 191.616 128.645 184.739 121.253 176.524Z"/><path fill="#FCFCFD" d="M177.301 93.0951C186.881 100.189 194.048 112.27 198.467 123.218L197.636 123.537C193.771 114.795 184.265 100.418 177.088 94.0432L177.301 93.0951Z"/><path fill="#FCFCFD" d="M166.825 100.391C168.619 101.589 183.145 125.86 184.656 128.897C181.653 128.199 167.943 104.587 166.825 100.391Z"/><path fill="#D3D5D7" d="M142.028 156.776C144.719 156.783 166.778 167.666 167.827 170.073C166.544 169.609 165.405 168.919 164.227 168.237C157.18 164.159 149.547 161.171 142.352 157.363C142.244 157.167 142.136 156.972 142.028 156.776Z"/><path fill="#FCFCFD" d="M163.643 109.129C164.417 109.397 166.141 112.244 166.463 113.006C168.358 117.495 174.441 123.479 176.07 127.603C174.57 127.245 171.041 122.4 169.961 120.954C167.292 117.382 164.998 113.388 163.643 109.129Z"/><path fill="#B2B4B5" d="M137.947 198.207C139.805 198.588 148.636 204.074 151.097 205.272C154.092 206.729 158.509 208.608 161.362 210.18C157.143 210.161 140.839 201.29 137.947 198.207Z"/><path fill="#777779" d="M163.479 204.412C165.547 205.284 167.821 206.522 169.894 207.496C173.576 209.226 178.045 211.044 181.432 213.312C176.218 212.352 167.557 207.549 162.683 204.799L163.479 204.412Z"/><path fill="#D3D5D7" d="M194.242 102.9C197.01 103.941 202.471 114.914 203.461 118.056C202.477 117.383 195.384 104.94 194.242 102.9Z"/><path fill="#B2B4B5" d="M115.289 144.579C113.324 143.097 106.53 135.967 105.292 133.977L105.485 133.899C109.592 137.197 112.497 140.559 116.3 144.005L115.289 144.579Z"/><path fill="#B2B4B5" d="M185.968 162.89C189.076 164.595 192.788 167.72 194.734 170.701C191.47 168.075 188.566 165.698 185.111 163.313L185.968 162.89Z"/><path fill="#B2B4B5" d="M198.467 123.218C199.48 125.839 201.023 129.368 201.664 131.988C199.848 128.908 198.943 126.875 197.636 123.537L198.467 123.218Z"/><path fill="#B2B4B5" d="M177.381 197.628L182.437 201.694L181.94 202.03C180.009 200.85 178.498 199.657 176.711 198.286L177.381 197.628Z"/><path fill="#B2B4B5" fill-opacity="0.98823529" d="M111.152 149.477C112.905 150.562 115.395 152.753 116.801 154.27L116.598 155.266C114.566 153.363 112.942 151.595 111.152 149.477Z"/><path fill="#909092" d="M157.783 192.912C159.888 194.304 162.111 195.726 164.15 197.197C161.071 196.247 160.022 195.194 157.303 193.696L157.783 192.912Z"/><path fill="#B2B4B5" d="M183.633 174.763C185.044 175.977 185.861 176.877 187.121 178.261L186.882 179.012C185.54 177.823 184.212 176.528 182.909 175.289L183.633 174.763Z"/><path fill="#626265" d="M187.121 178.261C188.949 180.012 190.856 182.117 192.1 184.341C190.313 182.596 188.521 180.899 186.882 179.012L187.121 178.261Z"/><path fill="#B2B4B5" d="M138.004 139.883C136.605 139.441 134.949 139.008 133.726 138.239L133.883 138.112C135.681 138.272 136.095 138.336 137.827 138.873L138.004 139.883Z"/><path fill="#909092" d="M194.662 131.015C195.648 132.288 196.668 134.256 197.388 135.72C196.452 134.78 194.845 133.083 194.337 131.868L194.662 131.015Z"/><path fill="#909092" d="M181.278 187.134C182.633 188.345 183.383 189.262 184.562 190.66C182.766 189.48 182.01 188.928 180.418 187.501L181.278 187.134Z"/><path fill="#121212" d="M184.843 190.471C186.027 190.857 186.828 191.644 187.262 192.795C185.926 192.562 185.004 191.827 184.843 190.471Z"/><path fill="#D3D5D7" d="M179.456 185.437L181.278 187.134L180.418 187.501L178.564 186.113L179.456 185.437Z"/><path fill="#B2B4B5" d="M173.67 91.1227C175.004 91.7518 176.111 92.2161 177.301 93.0951L177.088 94.0432C175.733 93.0364 174.909 92.2788 173.67 91.1227Z"/><path fill="#373737" d="M182.437 201.694C183.407 202.345 183.814 202.515 184.452 203.453L184.16 203.575C183.146 203.157 182.791 202.756 181.94 202.03L182.437 201.694Z"/><path fill="#FCFCFD" d="M221.792 163.928C226.734 162.802 231.785 160.181 237.026 158.93C251.322 155.602 266.268 156.384 280.139 161.187C298.093 167.227 300.484 173.157 299.173 191.566C298.244 194.332 298.269 198.337 297.275 200.938C292.005 214.734 285.677 229.883 271.766 236.987C267.895 238.963 264.688 240.393 260.48 240.497C270.255 245.555 279.568 255.102 282.79 265.793C284.301 270.806 284.034 275.145 282.868 280.217C280.162 285.681 277.809 288.384 273.415 292.569C260.655 304.725 241.209 306.675 224.381 305.963C217.918 305.689 202.602 303.179 198.448 297.561C189.866 285.953 191.32 265.951 195.64 252.901C197.636 246.79 199.885 242.323 204.796 238.093C207.276 235.956 219.946 228.551 222.179 231.561C221.628 232.818 216.682 234.085 214.756 235.125C212.12 236.527 209.644 238.211 207.372 240.147C198.379 247.827 196.853 257.321 195.693 268.666C194.993 275.52 195.475 289.298 200.105 294.444C205.883 300.866 219.055 303.245 227.284 303.586C242.831 304.087 259.237 301.375 271.188 290.646C282.267 280.701 283.924 270.374 275.568 257.94C270.809 250.859 263.389 243.394 254.835 241.11C252.007 240.355 248.739 240.642 245.866 239.988C238.187 238.411 229.882 235.579 223.463 231.043C221.672 229.777 219.927 227.874 218.438 226.303C210.982 217.041 205.862 204.583 202.318 193.264C201.552 190.819 200.844 188.485 199.964 186.074C202.369 179.57 206.354 175.073 211.431 170.602C214.172 168.179 218.597 165.653 221.792 163.928ZM203.603 184.754C223.383 202.643 265.245 202.491 287.839 189.681C290.832 187.984 293.897 185.407 296.903 183.513C288.862 200.704 252.261 201.874 235.828 200.34C231.067 199.896 225.069 198.531 220.355 197.466C213.555 195.592 210.507 193.492 204.674 189.728C207.944 200.533 213.181 215.233 220.649 223.953C230.015 234.89 252.221 240.59 265.905 236.506C275.273 233.711 283.218 223.951 287.568 215.645C292.807 205.601 296.728 195.773 296.8 184.334C296.854 175.803 293.81 169.859 285.847 166.023C275.878 161.222 260.327 158.303 249.126 159.602C231.854 160.883 211.674 168.255 203.603 184.754Z"/><path fill="#121212" d="M249.126 159.602C260.327 158.303 275.878 161.222 285.847 166.023C293.81 169.859 296.854 175.803 296.8 184.334C296.728 195.773 292.807 205.601 287.568 215.645C283.218 223.951 275.273 233.711 265.905 236.506C252.221 240.59 230.015 234.89 220.649 223.953C213.181 215.233 207.944 200.533 204.674 189.728C210.507 193.492 213.555 195.592 220.355 197.466C225.069 198.531 231.067 199.896 235.828 200.34C252.261 201.874 288.862 200.704 296.903 183.513C293.897 185.407 290.832 187.984 287.839 189.681C265.245 202.491 223.383 202.643 203.603 184.754C211.674 168.255 231.854 160.883 249.126 159.602ZM216.346 201.184C217.211 205.598 221.404 220.394 224.747 222.773C224.3 221.128 222.617 217.203 221.948 215.561C220.902 212.992 218.015 202.541 216.346 201.184ZM269.802 222.338L269.06 222.011C268.682 224.07 268.154 226.258 268.291 228.328C268.874 226.352 269.378 224.354 269.802 222.338Z"/><path fill="#FCFCFD" d="M234.348 206.603C236.21 208.006 236.454 221.271 237.976 223.884C238.178 224.231 238.936 227.432 239.005 227.915C235.29 225.215 233.637 210.717 234.348 206.603Z"/><path fill="#FCFCFD" d="M223.129 205.37C224.262 206.114 225.189 211.215 225.704 212.839C226.902 216.613 231.948 222.689 232.535 226.142C228.767 223.011 222.044 210.576 223.129 205.37Z"/><path fill="#FCFCFD" d="M254.639 183.619C256.058 183.65 257.557 183.695 258.145 185.146C257.652 187.135 255.405 187.02 253.782 187.12C252.188 186.996 250.334 186.979 249.559 185.376L249.832 184.756C251.478 183.402 252.429 183.663 254.639 183.619Z"/><path fill="#FCFCFD" d="M280.083 202.856L280.561 203.038C280.842 203.913 278.11 214.035 277.74 215.845C277.051 219.222 274.942 224.104 273.504 227.393L273.197 227.356C273.194 227.2 276.065 217.989 276.43 216.795C277.479 213.361 278.38 205.26 280.083 202.856Z"/><defs><linearGradient id="gradient_10" gradientUnits="userSpaceOnUse" x1="221.23898" y1="212.18793" x2="219.71255" y2="212.653"><stop offset="0" stop-color="#D5DBE1" stop-opacity="0.98039216"/><stop offset="1" stop-color="white"/></linearGradient></defs><path fill="url(#gradient_10)" d="M216.346 201.184C218.015 202.541 220.902 212.992 221.948 215.561C222.617 217.203 224.3 221.128 224.747 222.773C221.404 220.394 217.211 205.598 216.346 201.184Z"/><path fill="#FCFCFD" d="M287.383 199.939L287.622 200.207C287.856 203.598 282.532 218.477 280.613 221.297L280.425 221.086C280.558 219.669 286.695 201.063 287.383 199.939Z"/><path fill="#FCFCFD" d="M251.434 210.634C252.692 211.725 253.876 225.927 253.671 228.389C251.469 224.355 250.844 215.16 251.434 210.634Z"/><path fill="#FCFCFD" d="M230.596 169.538C232.483 169.376 233.284 169.364 234.551 170.851C234.977 172.55 233.966 172.888 232.563 173.355C230.874 173.46 230.067 173.545 228.722 172.533C228.256 171.641 228.334 172.104 228.507 171.09C229.085 170.179 229.589 170.054 230.596 169.538Z"/><path fill="#FCFCFD" d="M242.539 210.202C242.756 210.399 243.079 210.726 243.123 210.994C243.958 216.077 245.331 223.695 245.756 228.591C243.362 226.944 242.389 213.497 242.539 210.202Z"/><path fill="#FCFCFD" d="M260.78 164.757C262.511 164.734 265.52 164.323 266.551 165.928C266.712 166.885 266.472 167.147 266.035 168.019C264.197 168.277 261.139 168.578 260.265 166.497C260.234 165.531 260.293 165.553 260.78 164.757Z"/><path fill="#FCFCFD" d="M245.942 165.304C247.386 165.221 250.968 164.984 251.076 166.949C250.557 167.792 250.226 167.868 249.317 168.368C247.578 168.802 244.07 168.835 244.305 166.3C244.891 165.604 245.095 165.598 245.942 165.304Z"/><path fill="#D3D5D7" d="M260.548 210.167L261.071 210.603C263.167 215.837 262.334 224.067 261.127 229.426L260.795 229.531C260.368 229.093 260.922 226.842 261.027 225.927C261.636 220.626 260.905 215.448 260.548 210.167Z"/><path fill="#FCFCFD" d="M252.231 171.727C253.868 171.663 256.239 171.793 256.832 173.576C256.629 174.434 256.283 174.583 255.587 175.14C253.949 175.3 250.911 175.726 250.763 173.443C251.073 172.568 251.515 172.325 252.231 171.727Z"/><path fill="#FCFCFD" d="M222.203 184.451C224.323 184.478 226.17 185.059 228.195 185.625C227.495 186.241 226.681 186.788 225.918 187.331C224.348 187.89 221.922 188.743 221.183 186.692C221.306 185.599 221.554 185.398 222.203 184.451Z"/><path fill="#FCFCFD" d="M239.363 176.726C240.981 176.708 243.31 177.023 242.943 179.177C242.403 179.988 242.06 180.021 241.108 180.419C239.533 180.391 237.428 180.322 237.422 178.389C237.872 177.482 238.449 177.283 239.363 176.726Z"/><path fill="#FCFCFD" d="M237.213 189.206C239.761 189.063 240.956 189.539 243.269 190.385L241.095 191.88C239.57 192.366 236.928 193.172 236.232 191.178C236.351 190.213 236.604 190.022 237.213 189.206Z"/><path fill="#FCFCFD" d="M269.06 222.011C269.496 220.217 271.597 208.022 272.261 207.577C273.449 211.517 270.503 218.149 269.802 222.338L269.06 222.011Z"/><path fill="#FCFCFD" d="M286.485 174.29C287.581 174.246 288.371 174.256 289.228 174.976C289.776 176.687 288.372 177.31 287.076 178.044C285.938 178.058 285.348 177.994 284.51 177.154C283.914 175.333 285.055 174.933 286.485 174.29Z"/><path fill="#FCFCFD" d="M278.424 183.8C279.889 183.649 282.426 183.595 282.895 185.334C282.315 186.267 282.447 185.993 281.311 186.572C279.88 186.829 277.319 187.024 277.015 185.181C277.349 184.384 277.694 184.269 278.424 183.8Z"/><path fill="#FCFCFD" d="M275.772 166.717C277.07 166.815 277.62 166.891 278.524 167.802C278.838 168.724 278.819 168.266 278.55 169.228C277.875 170.045 277.578 170.065 276.543 170.466C275.29 170.11 273.81 169.837 273.766 168.344C274.247 167.453 274.848 167.255 275.772 166.717Z"/><path fill="#FCFCFD" d="M267.572 188.777C268.635 188.711 270.593 188.473 270.703 189.894C270.188 190.686 269.575 190.81 268.686 191.179C267.54 191.307 265.59 191.775 265.435 190.221C265.951 189.373 266.625 189.209 267.572 188.777Z"/><path fill="#FCFCFD" d="M267.446 177.466C268.507 177.621 268.48 177.583 269.39 178.113C269.846 178.876 269.754 178.468 269.619 179.392C269.045 180.228 268.732 180.281 267.779 180.747C266.532 180.598 266.091 180.611 265.333 179.681L265.417 178.994C266.003 178.085 266.439 177.985 267.446 177.466Z"/><path fill="#B2B4B5" fill-opacity="0.98431373" d="M268.291 228.328C268.154 226.258 268.682 224.07 269.06 222.011L269.802 222.338C269.378 224.354 268.874 226.352 268.291 228.328Z"/><defs><linearGradient id="gradient_11" gradientUnits="userSpaceOnUse" x1="250.91753" y1="451.43005" x2="340.64102" y2="373.07211"><stop offset="0" stop-color="#CBC9CA"/><stop offset="1" stop-color="#F9F9F9"/></linearGradient></defs><path fill="url(#gradient_11)" d="M298.495 331.553C298.72 329.156 299.05 326.838 299.38 324.457C302.696 332.711 302.089 339.83 302.047 348.565C302.053 355.975 301.806 363.383 301.306 370.777C300.083 387.119 297.674 403.228 295.906 419.487C294.918 428.212 294.267 436.972 293.955 445.748C293.47 458.543 294.492 471.319 296.569 483.939C297.105 487.191 297.583 490.953 298.299 494.137C294.755 494.451 292.074 494.935 288.625 495.85C287.017 488.97 286.589 480.496 286.144 473.457C284.959 456.158 285.475 438.784 287.687 421.586C289.914 402.992 293.538 384.355 295.281 365.719C295.857 359.289 296.169 352.838 296.217 346.382C296.208 339.643 295.76 332.695 296.813 326.022C297.28 328.362 297.403 329.577 297.559 331.974L298.086 332.108L298.495 331.553Z"/><path fill="#626265" d="M298.495 331.553C298.459 332.545 298.524 334.58 297.947 335.26C297.428 334.446 297.538 332.966 297.559 331.974L298.086 332.108L298.495 331.553Z"/><defs><linearGradient id="gradient_12" gradientUnits="userSpaceOnUse" x1="114.7459" y1="248.0611" x2="113.2541" y2="256.1889"><stop offset="0" stop-color="#D8D3D8"/><stop offset="1" stop-color="#FCFCFE"/></linearGradient></defs><path fill="url(#gradient_12)" d="M72.14 247.93C79.4832 248.475 86.4326 249.029 93.7071 250.34C116.801 254.504 136.211 260.015 159.785 255.335L160.218 256.222C142.885 260.24 124.094 257.818 106.708 254.969C101.136 254.056 95.1205 252.404 89.4799 251.44C82.9146 250.318 76.1687 249.733 69.6621 248.431C70.6237 247.809 70.8874 247.936 72.14 247.93Z"/><path fill="#FCFCFD" d="M67.9548 239.319C85.8007 236.907 104.344 239.664 121.491 244.8L120.502 245.392C118.972 245.208 117.068 244.834 115.538 244.51C100.942 241.418 87.1813 240.179 72.3173 240.284C70.7926 240.56 65.6649 240.693 64.2268 240.307L64.1853 240.107C65.6225 239.454 66.366 239.421 67.9548 239.319Z"/><path fill="#D3D5D7" d="M72.3173 240.284C70.7926 240.56 65.6649 240.693 64.2268 240.307L64.1853 240.107C65.6225 239.454 66.366 239.421 67.9548 239.319L68.0184 239.993C69.5189 240.46 70.7432 240.073 72.3173 240.284Z"/><path fill="#FCFCFD" d="M214.419 315.947C214.479 318.1 209.032 337.342 208.216 340.895C207.185 345.484 206.239 350.092 205.381 354.716C204.691 358.473 202.681 372.546 201.156 375.071C200.933 373.791 202.057 367.321 202.305 365.668C204.445 351.374 206.669 336.79 211.369 323.082C212.122 320.886 213.171 317.827 214.419 315.947Z"/><path fill="#FCFCFD" d="M63.9567 252.798C70.5846 254.763 77.4091 256.252 84.0412 258.264C88.6808 259.672 93.264 261.28 97.9026 262.646C105.307 264.843 112.88 266.422 120.545 267.368C120.91 267.578 121.283 267.741 121.674 267.897C121.307 268.33 121.523 268.18 121.05 268.376C115.429 267.735 109.313 267.13 103.842 265.784C96.4196 263.959 89.0589 261.119 81.7315 258.904C75.5793 257.045 69.3111 255.565 63.2152 253.551L63.9567 252.798Z"/><path fill="#FCFCFD" d="M259.371 312.901C259.573 313.08 259.78 313.295 259.734 313.61C257.579 328.423 250.978 342.486 242.927 354.956C240.481 358.743 237.34 363.153 234.286 366.051L234.23 366.037C233.991 365.218 236.133 362.682 236.733 361.825C243.796 351.75 250.281 340.798 254.486 329.197C256.403 323.907 257.533 318.252 259.371 312.901Z"/><path fill="#FCFCFD" d="M117.392 274.388C106.373 272.963 94.3636 269.701 84.0174 265.65C82.5892 265.091 76.7161 262.957 76.4111 261.882C78.8394 261.431 92.7981 267.264 96.8428 268.396C104.526 270.546 111.083 271.692 118.791 273.353C118.119 274.329 118.557 273.98 117.392 274.388Z"/><path fill="#FCFCFD" d="M140.781 233.201C127.479 230.574 114.457 227.334 100.875 226.721C100.046 226.684 97.8914 226.867 97.2826 226.499L97.4538 226.171C99.5283 225.337 104.647 225.717 106.905 225.9C118.854 226.861 130.663 229.116 142.126 232.622C141.496 232.982 141.481 233.069 140.781 233.201Z"/><path fill="#FCFCFD" d="M227.835 312.93C227.199 316.389 225.306 321.493 224.104 324.923L217.477 343.676C215.871 348.312 214.86 353.336 213.278 357.783L212.553 357.244C215.561 345.361 218.732 333.881 223.501 322.557C224.833 319.395 226.067 315.857 227.835 312.93Z"/><path fill="#FCFCFD" d="M237.38 318.782C237.351 321.436 235.458 325.839 234.682 328.485C230.959 341.193 225.51 352.702 220.28 364.814L219.561 364.511C222.939 355.664 226.627 346.978 230.06 338.189C232.5 331.942 234.205 324.911 237.38 318.782Z"/><path fill="#FCFCFD" d="M218.691 245.027L219.492 245.608C212.649 254.062 208.05 261.897 204.943 272.365C204.104 275.192 204.123 278.36 203.037 281.115C202.753 268.821 209.619 253.261 218.691 245.027Z"/><path fill="#FCFCFD" d="M257.2 348.032C263.49 339.172 267.008 332.355 269.865 321.778C270.831 318.199 271.658 313.775 272.912 310.377C272.991 318.58 268.984 329.861 265.567 337.364C264.306 340.134 259.858 346.556 257.782 348.979L257.2 348.032Z"/><path fill="#626265" d="M181.397 243.983L182.091 244.14L182.068 244.519C180.716 245.56 177.604 246.725 175.881 247.405C166.356 251.165 156.318 253.922 146.085 254.735C142.63 255.009 138.984 254.453 135.555 254.018L134.631 253.874L134.408 253.534C135.283 253.14 138.103 253.385 139.241 253.436C153.828 254.087 168.241 250.166 181.397 243.983Z"/><path fill="#FCFCFD" d="M222.812 250.915C223.435 251.893 221.086 255.885 220.456 257.108C214.722 268.235 211.902 278.496 210.621 290.945C207.152 283.61 217.856 257.101 222.812 250.915Z"/><path fill="#FCFCFD" d="M90.3075 220.911C90.7404 220.569 91.1852 220.241 91.641 219.93C100.867 213.757 119.11 216.974 129.464 219.245L128.643 220.125C120.779 217.842 107.345 217.294 99.1869 218.414C96.818 218.739 92.768 220.168 90.3075 220.911Z"/><path fill="#FCFCFD" d="M247.457 314.38L247.766 314.546C248.103 315.75 247.048 319.321 246.758 320.625C244.806 329.386 241.571 337.713 237.28 345.589C236.123 347.711 235.089 350.02 233.737 352.02L233.436 351.9C233.959 350.255 234.575 349.476 235.188 347.99C237.836 341.578 241.009 335.455 243.224 328.861C244.822 324.103 245.689 319.061 247.457 314.38Z"/><path fill="#FCFCFD" d="M282.398 305.39L282.714 305.712C282.862 307.537 281.978 311.117 281.607 313.038C279.984 321.427 276.865 333.877 271.5 340.496L271.312 340.286C271.369 339.582 275.584 330.385 276.173 328.59C277.401 324.839 278.481 321.04 279.41 317.204C280.298 313.406 281.062 309.005 282.398 305.39Z"/><path fill="#FCFCFD" d="M246.095 253.404L246.431 253.865C246.117 260.34 244.2 267.757 242.745 274.089C241.54 279.335 240.271 285.596 238.528 290.625L238.205 290.247C238.096 286.208 243.034 268.935 243.912 263.923C244.24 262.056 245.489 254.831 246.095 253.404Z"/><path fill="#FCFCFD" d="M229.951 255.498L230.131 255.864C229.961 257.129 229.346 258.541 228.759 259.627C224.304 267.87 221.058 276.912 221.007 286.382C221 287.66 220.908 290.733 220.421 291.889C219.674 289.726 219.862 286.397 219.983 284.138C220.543 273.687 224.593 264.323 229.951 255.498Z"/><path fill="#FCFCFD" d="M194.786 314.283L195.362 315.277C193.004 323.51 191.817 334.381 192.629 342.931L191.678 343.398C190.107 331.899 191.046 325.359 194.786 314.283Z"/><path fill="#FCFCFD" d="M255.34 256.422C255.729 256.842 255.72 256.743 255.789 257.434C256.689 266.477 253.66 284 248.552 291.122L248.176 290.833C248.317 289.979 251.53 282.012 252.179 279.8C254.859 270.674 254.412 265.395 255.34 256.422Z"/><path fill="#FCFCFD" d="M237.621 252.905C238.377 255.095 233.033 270.464 232.345 274.097C231.771 277.127 230.513 285.547 229.428 287.832C229.127 286.797 229.673 283.761 229.858 282.537C231.228 273.464 233.97 261.293 237.621 252.905Z"/><path fill="#D3D5D7" d="M104.492 277.635C117.839 279.962 121.967 280.221 135.592 280.257L135.323 281.012C124.842 282.17 114.927 281.031 104.76 278.56L104.492 277.635Z"/><defs><linearGradient id="gradient_13" gradientUnits="userSpaceOnUse" x1="118.77419" y1="238.92291" x2="118.98214" y2="235.47202"><stop offset="0" stop-color="#C7C6C4"/><stop offset="1" stop-color="#F8F6FB"/></linearGradient></defs><path fill="url(#gradient_13)" d="M105.814 234.381C115.594 235.5 125.284 237.302 134.812 239.773L133.808 240.413C131.085 239.704 126.84 239.043 124.009 238.532C117.592 237.328 111.147 236.283 104.679 235.397C104.921 234.784 105.131 234.825 105.814 234.381Z"/><path fill="#909092" d="M164.805 270.616L164.739 271.384C152.733 275.339 140.901 277.726 128.182 277.429C132.362 275.969 140.623 276.005 145.788 275.155C152.978 273.971 157.762 272.529 164.805 270.616Z"/><defs><linearGradient id="gradient_14" gradientUnits="userSpaceOnUse" x1="90.880013" y1="236.70361" x2="92.065521" y2="231.53389"><stop offset="0" stop-color="#C5CFBF"/><stop offset="1" stop-color="#FCEDFF"/></linearGradient></defs><path fill="url(#gradient_14)" d="M76.1338 233.694C84.8593 232.491 97.0613 233.244 105.814 234.381C105.131 234.825 104.921 234.784 104.679 235.397C99.9674 234.879 95.2374 234.548 90.4998 234.407C85.5612 234.274 81.0181 234.517 76.1338 233.694Z"/><path fill="#909092" d="M120.545 267.368C124.108 267.568 127.949 268.154 131.448 268.215C138.246 268.333 145.35 268.116 152.093 267.139C153.491 266.936 154.742 266.693 156.158 266.625C151.467 269.202 127.698 269.958 121.143 268.417C121.112 268.403 121.081 268.39 121.05 268.376C121.523 268.18 121.307 268.33 121.674 267.897C121.283 267.741 120.91 267.578 120.545 267.368Z"/><path fill="#FCFCFD" d="M184.407 312.211L184.522 312.333C184.406 312.014 183.031 323.226 182.784 324.316C182.148 327.124 184.82 338.081 184.392 339.045C180.176 332.432 181.267 319.1 184.407 312.211Z"/><path fill="#D3D5D7" d="M200.618 319.937C200.913 325.519 199.455 339.815 198.551 345.609C197.198 342.657 199.67 323.566 200.618 319.937Z"/><path fill="#909092" d="M142.126 232.622C143.291 232.394 154.261 233.775 156.422 233.916C158.88 234.077 163.147 234.221 165.749 234.349L165.987 234.563C160.877 235.63 145.977 233.967 140.781 233.201C141.481 233.069 141.496 232.982 142.126 232.622Z"/><path fill="#FCFCFD" d="M261.363 273.161C262.292 273.528 262.014 273.221 262.39 273.946C261.854 278.746 260.463 286.134 258.325 290.308C258.496 288.411 259.193 285.531 259.574 283.577C260.252 280.119 260.849 276.647 261.363 273.161Z"/><path fill="#777779" d="M159.785 255.335C161.629 254.841 175.241 250.582 176.028 250.985C175.453 251.831 161.971 255.833 160.218 256.222L159.785 255.335Z"/><path fill="#D3D5D7" d="M269.793 264.867C272.367 266.251 270.036 279.215 269.434 282.099L269.229 282.128L268.904 281.851C269.033 279.698 269.567 277.82 269.745 275.68C270.043 272.09 269.892 268.464 269.793 264.867Z"/><path fill="#373737" d="M134.812 239.773C136.648 239.568 145.069 241.174 147.671 241.488C145.977 242.25 136.256 240.553 133.808 240.413L134.812 239.773Z"/><path fill="#909092" d="M69.6621 248.431C68.3153 248.554 62.9475 247.875 61.5691 247.665L61.2009 247.365L61.1887 247.579L61.1433 247.527L61.141 247.335L60.9285 247.423L61.3482 247.567L61.5184 247.297C64.275 247.145 69.3113 247.486 72.14 247.93C70.8874 247.936 70.6237 247.809 69.6621 248.431Z"/><path fill="#FCFCFD" d="M261.363 273.161C261.625 269.929 261.708 268.154 262.814 265.079C262.833 268.002 262.92 271.072 262.39 273.946C262.014 273.221 262.292 273.528 261.363 273.161Z"/><path fill="#373737" d="M164.805 270.616C167.786 269.707 170.659 268.795 173.75 268.302C171.958 269.082 166.606 271.21 164.739 271.384L164.805 270.616Z"/><path fill="#909092" d="M219.561 364.511L220.28 364.814C219.189 367.581 218.236 369.898 216.691 372.443C217.335 369.598 218.467 367.206 219.561 364.511Z"/><path fill="#909092" d="M212.553 357.244L213.278 357.783C212.74 360 211.84 362.558 210.986 364.673L211.092 363.499C211.288 361.313 212.098 359.439 212.553 357.244Z"/><path fill="#909092" d="M121.491 244.8C122.919 244.911 124.254 245.211 125.653 245.51L125.736 246.275L125.755 245.542L125.87 245.581L126.009 246.239L126.111 246.181C124.521 246.257 122.108 245.735 120.502 245.392L121.491 244.8Z"/><path fill="#D3D5D7" d="M192.629 342.931C192.807 345.125 193.043 347.462 192.798 349.654C192.357 347.581 191.984 345.495 191.678 343.398L192.629 342.931Z"/><path fill="#D3D5D7" d="M129.464 219.245C130.76 219.578 131.855 219.781 133.033 220.414L132.977 220.995C131.743 220.684 129.933 220.382 128.643 220.125L129.464 219.245Z"/><path fill="#B2B4B5" d="M218.691 245.027C220.081 243.567 221.135 242.696 222.701 241.402C221.73 243.029 220.897 244.29 219.492 245.608L218.691 245.027Z"/><path fill="#373737" d="M133.033 220.414C134.182 220.565 137.578 220.855 138.2 221.634L138.204 221.606L137.534 221.233L137.476 221.747C136.08 221.627 134.33 221.364 132.977 220.995L133.033 220.414Z"/><path fill="#909092" d="M98.306 276.815C100.378 277.01 102.441 277.284 104.492 277.635L104.76 278.56C102.438 278.051 100.536 277.692 98.306 276.815Z"/><path fill="#D3D5D7" d="M118.791 273.353C119.835 273.518 120.364 273.49 121.164 274.112L121.021 274.417C119.79 274.86 118.702 274.617 117.392 274.388C118.557 273.98 118.119 274.329 118.791 273.353Z"/><path fill="#D3D5D7" d="M257.2 348.032L257.782 348.979C256.539 350.421 255.562 351.043 253.993 352.01C255.011 350.689 256.145 349.335 257.2 348.032Z"/><path fill="#909092" d="M135.592 280.257C136.321 280.253 138.034 280.237 138.83 280.245C139.403 280.25 138.688 280.986 139.581 280.467C138.554 280.894 136.481 280.977 135.323 281.012L135.592 280.257Z"/><path fill="#B2B4B5" fill-opacity="0.98823529" d="M58.9705 251.96C60.5864 252.082 62.349 252.481 63.9567 252.798L63.2152 253.551C61.8966 253.413 60.1941 252.53 58.9705 251.96Z"/><path fill="#D3D5D7" d="M187.051 274.987C187.831 274.423 188.816 273.542 189.714 273.482C189.518 274.244 188.599 274.88 187.954 275.366L187.051 274.987Z"/><path fill="#D3D5D7" d="M194.786 314.283C195.174 312.815 195.393 312.507 196.156 311.232C195.906 312.547 195.664 313.984 195.362 315.277L194.786 314.283Z"/></svg>